<svg xmlns="http://www.w3.org/2000/svg" width="537" height="177" fill="none"><path fill="url(#a)" d="M0 71 13.728.28h16.64L24.96 28.048h27.872L58.24.28h16.64L61.152 71h-16.64l5.72-29.432H22.36L16.64 71z"/><path fill="url(#b)" d="M92.036 33.56H76.124c3.536-13.312 14.248-20.28 28.808-20.28 14.872 0 21.84 7.696 21.84 17.888 0 1.664-.208 3.224-.52 4.992l-4.056 20.904c-1.04 5.408-1.352 8.632-1.352 11.128 0 1.144.104 1.976.208 2.808H104.62c-.104-.416-.104-.936-.104-1.56 0-1.144.104-2.6.312-4.264-5.408 5.2-11.96 7.488-17.992 7.488-9.776 0-16.952-5.096-16.952-14.872 0-7.696 5.096-14.352 14.664-17.576 8.528-2.808 14.352-3.328 25.688-3.432l.208-1.248c.208-1.04.312-1.976.312-2.912 0-4.264-2.6-6.448-8.008-6.448-5.512 0-9.152 3.016-10.712 7.384m-5.72 22.568c0 3.744 2.392 5.512 6.448 5.512 7.176 0 13.728-5.72 15.184-13.416l.416-2.184c-17.16.312-22.048 4.472-22.048 10.088"/><path fill="url(#c)" d="m139.517 71-8.84-55.952h16.744l4.16 37.024.208 6.448 2.6-6.448 18.616-37.024h16.848L159.173 71z"/><path fill="url(#d)" d="M236.908 52.592c-5.096 13.312-17.264 20.072-29.848 20.072-14.976 0-24.232-8.528-24.232-23.192 0-19.24 13.416-36.192 32.968-36.192 14.768 0 23.088 8.944 23.088 22.776 0 2.288-.208 4.784-.624 7.28l-.52 2.912h-38.48c-.104.936-.104 1.768-.104 2.704 0 7.384 3.12 11.024 9.152 11.024 5.304 0 9.672-2.184 11.96-7.384zM214.34 25.968c-5.928 0-10.504 4.68-13 11.128h21.736v-.728c0-6.76-3.016-10.4-8.736-10.4"/><path fill="url(#e)" d="M255.877 71 269.605.28h16.64L272.517 71z"/><path fill="url(#f)" d="M298.59 71 312.318.28h28.704c13.728 0 22.36 6.344 22.36 17.472 0 6.552-3.536 12.688-10.4 15.912 5.72 2.496 8.632 7.28 8.632 13.416 0 13.416-11.024 23.92-30.784 23.92zm39.52-57.512h-11.752l-3.016 15.496h11.336c7.592 0 11.128-4.264 11.128-9.464 0-3.744-2.6-6.032-7.696-6.032m-2.392 27.56h-14.664l-3.224 16.744h15.08c7.696 0 11.544-4.784 11.544-10.192 0-3.952-3.016-6.552-8.736-6.552"/><path fill="url(#g)" d="M418.847 52.592c-5.096 13.312-17.264 20.072-29.848 20.072-14.976 0-24.232-8.528-24.232-23.192 0-19.24 13.416-36.192 32.968-36.192 14.768 0 23.088 8.944 23.088 22.776 0 2.288-.208 4.784-.624 7.28l-.52 2.912h-38.48c-.104.936-.104 1.768-.104 2.704 0 7.384 3.12 11.024 9.152 11.024 5.304 0 9.672-2.184 11.96-7.384zm-22.568-26.624c-5.928 0-10.504 4.68-13 11.128h21.736v-.728c0-6.76-3.016-10.4-8.736-10.4"/><path fill="url(#h)" d="M476.766 52.592c-5.096 13.312-17.264 20.072-29.848 20.072-14.976 0-24.232-8.528-24.232-23.192 0-19.24 13.416-36.192 32.968-36.192 14.768 0 23.088 8.944 23.088 22.776 0 2.288-.208 4.784-.624 7.28l-.52 2.912h-38.48c-.104.936-.104 1.768-.104 2.704 0 7.384 3.12 11.024 9.152 11.024 5.304 0 9.672-2.184 11.96-7.384zm-22.568-26.624c-5.928 0-10.504 4.68-13 11.128h21.736v-.728c0-6.76-3.016-10.4-8.736-10.4"/><path fill="url(#i)" d="m478.317 71 10.816-55.952h15.912l-1.04 5.512c4.472-4.888 10.088-7.28 16.432-7.28 9.672 0 16.224 5.72 16.224 16.432 0 1.976-.208 4.056-.624 6.344L529.173 71h-15.912l6.656-34.112c.312-1.352.416-2.6.416-3.64 0-4.68-2.288-7.072-7.072-7.072-5.928 0-10.712 4.784-12.48 11.232L494.229 71z"/><path fill="url(#j)" d="m143.271 175.116 13.746-70.846h16.663l-13.746 70.846zm32.607-23.136h-6.188l2.606-13.23h4.939c3.121 0 5.726-.584 7.816-1.778 2.09-1.181 3.664-2.755 4.736-4.736s1.614-4.22 1.614-6.717-.8-4.464-2.401-5.889c-1.602-1.425-3.99-2.13-7.192-2.13h-15.103l2.497-13.23h15.103c7.504 0 13.461 1.777 17.871 5.319s6.621 8.576 6.621 15.103c0 5.007-1.302 9.552-3.908 13.65s-6.377 7.396-11.303 9.893q-7.389 3.745-17.708 3.745"/><path fill="url(#k)" d="m255.044 175.117-2.09-35.01.313-8.752h.732l-3.229 8.752-15.727 35.01h-20.422l-3.433-56.042h16.975l.204 37.085-.109 9.377h-.828l3.854-9.377 16.975-37.085h16.148l2.497 37.085.108 9.377h-.936l3.433-9.377 14.791-37.085h16.351l-25.321 56.042h-20.313z"/><path fill="url(#l)" d="m293.067 175.116 10.829-56.042h15.944l-10.829 56.042zm22.091-32.201h-5.319c1.52-5.834 3.528-10.638 5.984-14.424 2.47-3.786 5.346-6.595 8.644-8.44 3.297-1.846 6.893-2.755 10.787-2.755 3.271 0 6.107.625 8.549 1.873 2.429 1.248 4.329 3.094 5.672 5.523 1.357 2.429 2.036 5.455 2.036 9.064 0 .977-.055 1.995-.163 3.067a36 36 0 0 1-.475 3.284l-6.88 35.009h-15.944l6.663-34.168c.135-.692.244-1.33.312-1.927.068-.583.108-1.167.108-1.723 0-2.361-.57-4.125-1.723-5.32-1.14-1.18-2.931-1.777-5.36-1.777-1.533 0-2.999.312-4.424.936a12.3 12.3 0 0 0-3.853 2.66 15 15 0 0 0-2.863 4.057 24 24 0 0 0-1.778 5.048z"/><path fill="url(#m)" d="m403.805 141.151-10.204 5.835c.204-1.248.38-2.415.516-3.487.135-1.072.203-2.103.203-3.08 0-3.406-.746-5.984-2.239-7.762s-3.664-2.66-6.513-2.66c-2.293 0-4.37.638-6.256 1.927-1.872 1.289-3.487 3.04-4.844 5.265-1.357 2.226-2.375 4.709-3.08 7.45a34.1 34.1 0 0 0-1.045 8.386c0 3.677.76 6.445 2.293 8.277 1.534 1.845 3.813 2.755 6.88 2.755 2.632 0 5.007-.57 7.083-1.724 2.09-1.14 3.718-3.039 4.899-5.672h16.663c-1.737 4.451-4.152 8.156-7.246 11.141s-6.581 5.224-10.476 6.717a33.8 33.8 0 0 1-12.185 2.239c-7.504 0-13.42-2.036-17.762-6.093q-6.514-6.086-6.514-17.138c0-4.79.787-9.363 2.348-13.705s3.813-8.21 6.771-11.616a32 32 0 0 1 10.516-8.019c4.057-1.941 8.522-2.918 13.393-2.918 7.355 0 13.054 2.063 17.084 6.201 4.03 4.139 6.039 9.676 6.039 16.623q0 1.669-.163 3.542a44 44 0 0 1-.475 3.745l-.516 2.917h-48.334l1.669-9.173h41.468z"/><path fill="url(#n)" d="M430.482 176.771c-3.827 0-7.138-.909-9.947-2.714s-4.966-4.369-6.459-7.707-2.239-7.219-2.239-11.67c0-4.925.733-9.634 2.185-14.112 1.466-4.478 3.528-8.467 6.201-11.982 2.673-3.501 5.849-6.269 9.526-8.277s7.748-3.026 12.185-3.026c5.279 0 9.309 1.818 12.091 5.468s4.166 8.766 4.166 15.361c0 5.346-.747 10.367-2.239 15.048-1.493 4.682-3.556 8.807-6.202 12.349s-5.604 6.296-8.901 8.277c-3.298 1.981-6.758 2.972-10.367 2.972zm5.835-12.918c2.293 0 4.355-.746 6.201-2.239q2.768-2.238 4.681-5.78c1.289-2.361 2.239-4.913 2.863-7.654s.937-5.359.937-7.87c0-3.27-.679-5.767-2.036-7.504q-2.035-2.605-5.984-2.605-3.135 0-5.78 2.035c-1.764 1.357-3.311 3.148-4.641 5.36-1.316 2.226-2.348 4.736-3.067 7.558a34 34 0 0 0-1.099 8.59c0 3.27.665 5.767 1.981 7.504q1.974 2.605 5.944 2.605m8.643 11.263 14.587-75.012h15.945l-14.588 75.012z"/><path fill="url(#o)" d="m142.502 151.983 2.565-13.23H128.39l-2.565 13.23z"/><path fill="url(#p)" d="m120.56 151.983 2.565-13.23h-16.677l-2.564 13.23z"/><path fill="url(#q)" d="m94.124 175.119 3.46-17.858H80.907l-3.46 17.858z"/><path fill="url(#r)" d="m76.677 151.983 6.69-34.48H66.69L60 151.983z"/><path fill="url(#s)" d="m98.619 151.982 3.46-17.857H85.402l-3.46 17.857z"/><defs><linearGradient id="a" x1="457" x2="80" y1="158" y2="55.5" gradientUnits="userSpaceOnUse"><stop stop-color="#1d72a7"/><stop offset="1" stop-color="#c8e5f8"/></linearGradient><linearGradient id="b" x1="457" x2="80" y1="158" y2="55.5" gradientUnits="userSpaceOnUse"><stop stop-color="#1d72a7"/><stop offset="1" stop-color="#c8e5f8"/></linearGradient><linearGradient id="c" x1="457" x2="80" y1="158" y2="55.5" gradientUnits="userSpaceOnUse"><stop stop-color="#1d72a7"/><stop offset="1" stop-color="#c8e5f8"/></linearGradient><linearGradient id="d" x1="457" x2="80" y1="158" y2="55.5" gradientUnits="userSpaceOnUse"><stop stop-color="#1d72a7"/><stop offset="1" stop-color="#c8e5f8"/></linearGradient><linearGradient id="e" x1="457" x2="80" y1="158" y2="55.5" gradientUnits="userSpaceOnUse"><stop stop-color="#1d72a7"/><stop offset="1" stop-color="#c8e5f8"/></linearGradient><linearGradient id="f" x1="457" x2="80" y1="158" y2="55.5" gradientUnits="userSpaceOnUse"><stop stop-color="#1d72a7"/><stop offset="1" stop-color="#c8e5f8"/></linearGradient><linearGradient id="g" x1="457" x2="80" y1="158" y2="55.5" gradientUnits="userSpaceOnUse"><stop stop-color="#1d72a7"/><stop offset="1" stop-color="#c8e5f8"/></linearGradient><linearGradient id="h" x1="457" x2="80" y1="158" y2="55.5" gradientUnits="userSpaceOnUse"><stop stop-color="#1d72a7"/><stop offset="1" stop-color="#c8e5f8"/></linearGradient><linearGradient id="i" x1="457" x2="80" y1="158" y2="55.5" gradientUnits="userSpaceOnUse"><stop stop-color="#1d72a7"/><stop offset="1" stop-color="#c8e5f8"/></linearGradient><linearGradient id="j" x1="457" x2="80" y1="158" y2="55.5" gradientUnits="userSpaceOnUse"><stop stop-color="#1d72a7"/><stop offset="1" stop-color="#c8e5f8"/></linearGradient><linearGradient id="k" x1="457" x2="80" y1="158" y2="55.5" gradientUnits="userSpaceOnUse"><stop stop-color="#1d72a7"/><stop offset="1" stop-color="#c8e5f8"/></linearGradient><linearGradient id="l" x1="457" x2="80" y1="158" y2="55.5" gradientUnits="userSpaceOnUse"><stop stop-color="#1d72a7"/><stop offset="1" stop-color="#c8e5f8"/></linearGradient><linearGradient id="m" x1="457" x2="80" y1="158" y2="55.5" gradientUnits="userSpaceOnUse"><stop stop-color="#1d72a7"/><stop offset="1" stop-color="#c8e5f8"/></linearGradient><linearGradient id="n" x1="457" x2="80" y1="158" y2="55.5" gradientUnits="userSpaceOnUse"><stop stop-color="#1d72a7"/><stop offset="1" stop-color="#c8e5f8"/></linearGradient><linearGradient id="o" x1="457" x2="80" y1="158" y2="55.5" gradientUnits="userSpaceOnUse"><stop stop-color="#1d72a7"/><stop offset="1" stop-color="#c8e5f8"/></linearGradient><linearGradient id="p" x1="457" x2="80" y1="158" y2="55.5" gradientUnits="userSpaceOnUse"><stop stop-color="#1d72a7"/><stop offset="1" stop-color="#c8e5f8"/></linearGradient><linearGradient id="q" x1="457" x2="80" y1="158" y2="55.5" gradientUnits="userSpaceOnUse"><stop stop-color="#1d72a7"/><stop offset="1" stop-color="#c8e5f8"/></linearGradient><linearGradient id="r" x1="457" x2="80" y1="158" y2="55.5" gradientUnits="userSpaceOnUse"><stop stop-color="#1d72a7"/><stop offset="1" stop-color="#c8e5f8"/></linearGradient><linearGradient id="s" x1="457" x2="80" y1="158" y2="55.5" gradientUnits="userSpaceOnUse"><stop stop-color="#1d72a7"/><stop offset="1" stop-color="#c8e5f8"/></linearGradient></defs></svg>